# xmcd
#
# Track frame offsets: 
#        183
#        16783
#        31863
#        44423
#        61978
#        77103
#        91335
#        106480
#        122415
#        136423
#        153270
#        166518
#        180295
#        197395
#
# Disc length: 2791 seconds
#
# Revision: 2
# Processed by: cddbd v1.5.2PL0 Copyright (c) Steve Scherf et al.
# Submitted via: ExactAudioCopyFreeDBPlugin 1.0
#
DISCID=9a0ae50e
DTITLE=The Moonlight Moods Orchestra - Themes and Dreams
DYEAR=1900
DGENRE=
TTITLE0=Hello
TTITLE1=Only You
TTITLE2=The Girl is Mine
TTITLE3=Up Where we Belong
TTITLE4=Heartbreaker
TTITLE5=One Day I'll Fly Away
TTITLE6=Every Breath you Take
TTITLE7=Ebony and Ivory
TTITLE8=Against all Odds
TTITLE9=Love Resurrection
TTITLE10=Leave a Tender Moment Alone
TTITLE11=Total Eclipse of My Heart
TTITLE12=Sad Songs
TTITLE13=To All the Girls i've Loved Before
EXTD=
EXTT0=
EXTT1=
EXTT2=
EXTT3=
EXTT4=
EXTT5=
EXTT6=
EXTT7=
EXTT8=
EXTT9=
EXTT10=
EXTT11=
EXTT12=
EXTT13=
PLAYORDER=
